# xmcd
#
# Track frame offsets:
#	150
#	11483
#	25145
#	37208
#	46495
#	62448
#	74418
#	96070
#	107363
#	131266
#
# Disc length: 1967 seconds
#
# Revision: 1
# Processed by: cddbd v1.5.1PL2 Copyright (c) Steve Scherf et al.
# Submitted via: audiograbber 1.83.01
#
DISCID=7b07ad0a
DTITLE=Chicago Red - in this life
DYEAR=2002
DGENRE=Blues
TTITLE0=Corrina
TTITLE1=Half And Half
TTITLE2=Goin To Heaven?
TTITLE3=Hot Dog With A Beef
TTITLE4=Treat Everybody Right
TTITLE5=Cipro Prescription Blues
TTITLE6=Bad Times Good Friends
TTITLE7=Nobody Knows When You're Down And Out
TTITLE8=Steady Rollin Man
TTITLE9=In This Life
EXTD=chicagored@earthlink.net
EXTT0=
EXTT1=
EXTT2=
EXTT3=
EXTT4=
EXTT5=
EXTT6=
EXTT7=
EXTT8=
EXTT9=
PLAYORDER=
